# xmcd
#
# Track frame offsets:
# 150
# 14496
# 26476
# 40290
# 52572
# 66696
# 79059
# 92258
# 103111
# 115350
# 128651
# 143476
# 156128
# 171017
# 181276
# 194099
# 208863
# 222371
# 233522
# 247264
#
# Disc length: 3473 seconds
#
#
# Revision: 2
# Processed by: cddbd v1.5.2PL0 Copyright (c) Steve Scherf et al.
# Submitted via: FreeRIP 2.951 
#
DISCID=170d8f14
DTITLE=Josephine Baker - Sur Deux Notes [CD 2)
DYEAR=2004
DGENRE=Jazz
TTITLE0=J'ai deux amours (1930)
TTITLE1=La petite tonkinoise (1930)
TTITLE2=Toc toc partout (1937)
TTITLE3=Si j'etais blanche (1932)
TTITLE4=Dis-moi Josephine (1930)
TTITLE5=Pardon si je t'importune (1931)
TTITLE6=Tes mots d'amour (1933)
TTITLE7=La conga blicoti (1936)
TTITLE8=Ram-pam-pam (1932)
TTITLE9=Voulez-vous de la canne a sucre? (1930)
TTITLE10=Sous le ciel d'afrique (1937)
TTITLE11=J'ai peur de rêver (1937)
TTITLE12=Haiti (1934)
TTITLE13=Mon Paris (1937)
TTITLE14=Aux îes Hawai (1931)
TTITLE15=Sans amour (1932)
TTITLE16=C'est lui (1934)
TTITLE17=Paris mes amours (1935)
TTITLE18=Partir sur un bateau tout blanc (1935)
TTITLE19=Sur deux notes (1939)
EXTD=
EXTT0=
EXTT1=
EXTT2=
EXTT3=
EXTT4=
EXTT5=
EXTT6=
EXTT7=
EXTT8=
EXTT9=
EXTT10=
EXTT11=
EXTT12=
EXTT13=
EXTT14=
EXTT15=
EXTT16=
EXTT17=
EXTT18=
EXTT19=
PLAYORDER=
